<svg width="359" height="483" viewBox="0 0 359 483" fill="none" xmlns="http://www.w3.org/2000/svg">
<path d="M140.747 349.086C130.526 376.888 119.054 389.858 92.06 409.983C117.63 410.168 131 406.015 152.915 389.684C151.665 429.389 157.013 448.944 177.267 479C201.761 448.553 206.65 428.545 205.669 389.684C225.479 407.987 239.324 411.048 266.524 409.983C240.131 389.078 229.767 375.632 217.837 349.086M140.747 349.086H217.837M140.747 349.086H96.1107V320.667H124.513M217.837 349.086H262.457V320.667H230.004M124.513 320.667C124.513 292.247 96.1107 259.768 75.8257 263.83C63.6578 267.889 72.6451 292.371 79.892 312.547C14.9704 288.188 -21.5331 219.17 19.037 182.633C49.7177 157.772 71.775 158.274 100.177 182.633C140.747 227.291 148.184 262.802 156.982 320.667M124.513 320.667H156.982M230.004 320.667C242.52 284.266 266.524 255.709 282.742 263.83C290.86 267.889 286.54 291.304 278.692 312.547C347.664 280.068 376.066 231.351 343.597 182.633C323.328 154.214 278.692 158.274 250.29 190.753C217.837 231.351 209.719 263.83 205.669 320.667M230.004 320.667H205.669M156.982 320.667H165.083M205.669 320.667H197.552M165.083 320.667H197.552M165.083 320.667C163.627 284.025 158.864 264.572 144.798 231.351C103.104 130.369 124.149 83.7161 177.267 4C242.426 84.0245 261.904 131.825 213.77 231.351C197.947 264.982 197.884 284.605 197.552 320.667" stroke="#335266" stroke-width="4"/>
</svg>
