<svg width="492" height="81" viewBox="0 0 492 81" fill="none" xmlns="http://www.w3.org/2000/svg">
<path d="M53.1 28.2L51.0719 31.6477L54.6995 33.7816L56.6463 30.0503L53.1 28.2ZM51.4 27.2L53.4281 23.7523L53.4281 23.7523L51.4 27.2ZM46.9 25L45.2156 28.628L45.2696 28.6531L45.3243 28.6766L46.9 25ZM40.8 22.7L41.96 18.8719L41.96 18.8719L40.8 22.7ZM30.2 22.5L31.9889 26.0777H31.9889L30.2 22.5ZM30.2 28.1L32.4661 24.8038L32.4661 24.8038L30.2 28.1ZM34.7 30.1L33.5144 33.9203L33.5325 33.9259L33.5506 33.9313L34.7 30.1ZM41.8 32.3L40.591 36.1129L40.6155 36.1207L40.64 36.1281L41.8 32.3ZM53.2 36.9L55.1051 33.3828H55.1051L53.2 36.9ZM60.6 43.6L57.222 45.7422L57.234 45.7611L57.2462 45.78L60.6 43.6ZM60.9 65.1L64.4271 66.9866L64.4361 66.9699L64.4449 66.953L60.9 65.1ZM54.7 72L56.9188 75.3282L54.7 72ZM46 75.8L46.8935 79.6989L46.9319 79.6901L46.9701 79.6806L46 75.8ZM25.5 75.9L24.7155 79.8223L24.7561 79.8304L24.7968 79.8377L25.5 75.9ZM14.8 73L13.4272 76.7571L13.4593 76.7688L13.4916 76.7799L14.8 73ZM5.3 68.6L1.70978 66.8364L0.0655284 70.1836L3.28952 72.058L5.3 68.6ZM13.7 51.5L15.758 48.07L12.0278 45.8319L10.1098 49.7364L13.7 51.5ZM21 55.4L19.3448 59.0415H19.3448L21 55.4ZM28.3 58.1L27.1506 61.9313L27.1635 61.9352L27.1764 61.9389L28.3 58.1ZM40.9 58.5L43.1188 61.8282L43.148 61.8087L43.1768 61.7888L40.9 58.5ZM40 53L38.0846 56.5116L38.1473 56.5458L38.2111 56.5777L40 53ZM34.2 50.8L33.0007 54.616L33.0647 54.6361L33.1294 54.6541L34.2 50.8ZM26.4 48.3L25.1168 52.0886L25.1392 52.0962L25.1617 52.1035L26.4 48.3ZM16.2 43.6L13.9621 46.9154L13.9909 46.9348L14.02 46.9538L16.2 43.6ZM10.3 37.3L6.74173 39.1272L6.75198 39.1472L6.76246 39.167L10.3 37.3ZM12.1 15.2L8.82017 12.9103L8.82017 12.9103L12.1 15.2ZM21.8 7.2L23.4415 10.8477L23.4551 10.8416L23.4687 10.8353L21.8 7.2ZM44.9 5.7L43.8543 9.5609L43.9013 9.57362L43.9485 9.58519L44.9 5.7ZM54 8.7L52.4243 12.3766L52.4399 12.3832L52.4554 12.3898L54 8.7ZM61.5 12.1L65.0463 13.9503L66.9288 10.3422L63.2889 8.52228L61.5 12.1ZM53.1 28.2C55.1281 24.7523 55.1281 24.7523 55.1281 24.7523C55.1281 24.7523 55.1281 24.7523 55.1281 24.7522C55.1281 24.7522 55.128 24.7522 55.128 24.7522C55.128 24.7522 55.128 24.7522 55.128 24.7522C55.128 24.7522 55.1279 24.7522 55.1279 24.7522C55.1279 24.7522 55.1279 24.7521 55.1279 24.7521C55.1277 24.7521 55.1278 24.7521 55.1277 24.752C55.1274 24.7519 55.127 24.7516 55.1264 24.7513C55.1257 24.7508 55.1254 24.7507 55.1244 24.7501C55.1242 24.75 55.1219 24.7486 55.1214 24.7484C55.121 24.7481 55.1147 24.7444 55.1131 24.7435C55.1127 24.7432 55.1111 24.7423 55.1105 24.7419C55.1103 24.7418 55.1101 24.7417 55.1099 24.7415C55.1096 24.7414 55.1094 24.7413 55.1092 24.7411C55.1089 24.741 55.1087 24.7409 55.1085 24.7407C55.1082 24.7406 55.108 24.7404 55.1077 24.7403C55.107 24.7398 55.1056 24.739 55.1047 24.7385C55.1044 24.7383 55.1019 24.7369 55.1015 24.7366C55.0989 24.7351 55.0754 24.7213 55.0683 24.7171C55.0648 24.7151 55.0513 24.7071 55.0467 24.7044C55.0466 24.7044 55.023 24.6905 55.0218 24.6898C54.993 24.6728 54.9356 24.639 54.889 24.6116C54.8805 24.6066 54.7293 24.5177 54.7031 24.5023C54.6856 24.492 53.7289 23.9292 53.4281 23.7523L49.3719 30.6477C49.4793 30.7109 49.6807 30.8294 49.7704 30.8821C49.7841 30.8902 49.849 30.9284 49.8617 30.9358C49.8635 30.9369 49.8654 30.938 49.8673 30.9391C49.8691 30.9402 49.871 30.9413 49.8728 30.9424C49.8756 30.944 49.8812 30.9473 49.884 30.9489C49.8856 30.9499 49.9045 30.961 49.9061 30.9619C49.9148 30.967 49.9194 30.9698 49.928 30.9748C49.9312 30.9767 49.9464 30.9857 49.9497 30.9876C49.9667 30.9976 50.1031 31.0778 50.1157 31.0852C50.344 31.2196 50.4894 31.3051 50.6469 31.3977C50.7291 31.4461 50.9543 31.5786 50.9657 31.5852C50.988 31.5984 51.0408 31.6294 51.0454 31.6321C51.0483 31.6338 51.0551 31.6379 51.057 31.6389C51.0584 31.6398 51.0604 31.641 51.0615 31.6416C51.0619 31.6418 51.0652 31.6438 51.0653 31.6438C51.0656 31.644 51.0658 31.6441 51.0661 31.6443C51.0662 31.6444 51.0663 31.6445 51.0665 31.6445C51.0666 31.6446 51.0667 31.6447 51.0668 31.6447C51.0669 31.6448 51.0682 31.6455 51.0682 31.6455C51.0683 31.6456 51.0684 31.6457 51.0685 31.6457C51.0686 31.6458 51.0687 31.6458 51.0688 31.6459C51.0689 31.6459 51.069 31.646 51.0691 31.646C51.0691 31.6461 51.0692 31.6462 51.0693 31.6462C51.0694 31.6463 51.0698 31.6465 51.0698 31.6465C51.0702 31.6467 51.0699 31.6466 51.0703 31.6468C51.0704 31.6468 51.0706 31.6469 51.0706 31.647C51.0707 31.647 51.0708 31.6471 51.0708 31.6471C51.0709 31.6471 51.0709 31.6472 51.071 31.6472C51.0714 31.6474 51.0712 31.6473 51.0715 31.6475C51.0717 31.6476 51.0717 31.6476 51.0718 31.6477C51.0718 31.6477 51.0718 31.6477 51.0719 31.6477C51.0719 31.6477 51.0719 31.6477 51.0719 31.6477C51.0719 31.6477 51.0719 31.6477 51.0719 31.6477C51.0719 31.6477 51.0719 31.6477 53.1 28.2ZM53.4281 23.7523C52.093 22.9669 50.424 22.1584 48.4757 21.3234L45.3243 28.6766C47.1094 29.4416 48.4403 30.0997 49.3719 30.6477L53.4281 23.7523ZM48.5844 21.372C46.5295 20.4179 44.3189 19.5867 41.96 18.8719L39.64 26.5281C41.6811 27.1466 43.5371 27.8488 45.2156 28.628L48.5844 21.372ZM41.96 18.8719C39.413 18.1001 36.8556 17.7 34.3 17.7V25.7C36.011 25.7 37.787 25.9666 39.64 26.5281L41.96 18.8719ZM34.3 17.7C32.2445 17.7 30.2091 18.0233 28.4111 18.9223L31.9889 26.0777C32.3243 25.91 33.0222 25.7 34.3 25.7V17.7ZM28.4111 18.9223C27.2895 19.4831 26.2698 20.336 25.5588 21.5358C24.8562 22.7214 24.6 24.0004 24.6 25.2H32.6C32.6 25.1329 32.6104 25.3286 32.4412 25.6142C32.2635 25.914 32.0438 26.0502 31.9889 26.0777L28.4111 18.9223ZM24.6 25.2C24.6 27.8349 25.8825 29.9859 27.9339 31.3962L32.4661 24.8038C32.3572 24.7289 32.4208 24.745 32.5023 24.8927C32.5403 24.9615 32.5677 25.0339 32.5841 25.1002C32.6 25.1648 32.6 25.202 32.6 25.2H24.6ZM27.9339 31.3962C29.4643 32.4484 31.3874 33.2602 33.5144 33.9203L35.8856 26.2797C34.1459 25.7398 33.069 25.2183 32.4661 24.8038L27.9339 31.3962ZM33.5506 33.9313C35.5249 34.5236 37.8708 35.2504 40.591 36.1129L43.009 28.4871C40.2626 27.6163 37.8751 26.8764 35.8494 26.2687L33.5506 33.9313ZM40.64 36.1281C44.8458 37.4026 48.3845 38.8407 51.2949 40.4172L55.1051 33.3828C51.6155 31.4926 47.5542 29.8641 42.96 28.4719L40.64 36.1281ZM51.2949 40.4172C53.9706 41.8665 55.8979 43.6542 57.222 45.7422L63.978 41.4578C61.8354 38.0791 58.8294 35.4001 55.1051 33.3828L51.2949 40.4172ZM57.2462 45.78C58.4195 47.585 59.2 50.3069 59.2 54.3H67.2C67.2 49.3598 66.2471 44.9483 63.9538 41.42L57.2462 45.78ZM59.2 54.3C59.2 58.1023 58.5156 61.0269 57.3551 63.247L64.4449 66.953C66.3511 63.3064 67.2 59.031 67.2 54.3H59.2ZM57.3729 63.2134C56.1373 65.5234 54.5105 67.3189 52.4812 68.6718L56.9188 75.3282C60.0895 73.2144 62.5961 70.4099 64.4271 66.9866L57.3729 63.2134ZM52.4812 68.6718C50.2835 70.1369 47.81 71.2244 45.0299 71.9194L46.9701 79.6806C50.59 78.7756 53.9165 77.3297 56.9188 75.3282L52.4812 68.6718ZM45.1065 71.9011C42.2041 72.5662 39.2373 72.9 36.2 72.9V80.9C39.8294 80.9 43.3959 80.5005 46.8935 79.6989L45.1065 71.9011ZM36.2 72.9C33.0609 72.9 29.7306 72.5922 26.2032 71.9623L24.7968 79.8377C28.7361 80.5412 32.5391 80.9 36.2 80.9V72.9ZM26.2845 71.9777C22.7921 71.2792 19.4006 70.3596 16.1084 69.2201L13.4916 76.7799C17.1327 78.0404 20.8746 79.0541 24.7155 79.8223L26.2845 71.9777ZM16.1728 69.2429C12.9026 68.0481 9.95248 66.678 7.31048 65.142L3.28952 72.058C6.38085 73.8553 9.76403 75.4186 13.4272 76.7571L16.1728 69.2429ZM8.89022 70.3636L17.2902 53.2636L10.1098 49.7364L1.70978 66.8364L8.89022 70.3636ZM13.7 51.5C11.642 54.93 11.642 54.93 11.642 54.93C11.642 54.93 11.642 54.93 11.642 54.93C11.6421 54.93 11.6421 54.93 11.6421 54.93C11.6421 54.93 11.6421 54.93 11.6421 54.93C11.6422 54.9301 11.6422 54.9301 11.6423 54.9301C11.6425 54.9302 11.6423 54.9301 11.6425 54.9303C11.6427 54.9304 11.6429 54.9305 11.6431 54.9306C11.6432 54.9307 11.6438 54.9311 11.644 54.9311C11.6446 54.9315 11.6443 54.9314 11.6451 54.9318C11.6458 54.9322 11.6456 54.9321 11.6464 54.9326C11.6471 54.933 11.6488 54.934 11.6498 54.9347C11.653 54.9365 11.6552 54.9379 11.6596 54.9405C11.6635 54.9429 11.6681 54.9456 11.6733 54.9487C11.6879 54.9575 11.6925 54.9603 11.7123 54.9722C11.7571 54.999 11.717 54.975 11.767 55.005C11.942 55.11 11.7274 54.9812 11.9233 55.0987C11.9357 55.1062 12.1087 55.21 12.142 55.23C12.3419 55.3499 12.4838 55.4351 12.767 55.605C13.2167 55.8748 13.109 55.8102 13.642 56.13L17.758 49.27C17.5246 49.13 17.7439 49.2616 17.5158 49.1247C17.4523 49.0866 17.3475 49.0238 17.2892 48.9888C17.2719 48.9784 17.2929 48.991 17.2756 48.9806C17.2747 48.98 17.2629 48.973 17.262 48.9724C17.2333 48.9552 17.2637 48.9734 17.235 48.9563C17.2065 48.9391 17.2368 48.9573 17.2083 48.9402C17.2061 48.9389 17.2039 48.9376 17.2017 48.9362C17.1994 48.9349 17.1972 48.9336 17.195 48.9323C17.1941 48.9317 17.1827 48.9248 17.1818 48.9243C17.1748 48.9201 17.1625 48.9128 17.1556 48.9086C17.1534 48.9073 17.1512 48.906 17.149 48.9047C17.1469 48.9034 17.1447 48.9021 17.1425 48.9008C17.1404 48.8995 17.1382 48.8982 17.136 48.8969C17.1339 48.8956 17.1317 48.8943 17.1296 48.893C17.1261 48.8909 17.1072 48.8795 17.1038 48.8775C17.1017 48.8762 17.0995 48.875 17.0974 48.8737C17.0953 48.8724 17.0931 48.8711 17.091 48.8699C17.0834 48.8653 17.0859 48.8668 17.0783 48.8622C17.0762 48.8609 17.0741 48.8597 17.072 48.8584C17.0698 48.8571 17.0677 48.8559 17.0656 48.8546C17.0606 48.8516 17.0581 48.8501 17.053 48.8471C17.0513 48.846 17.0296 48.833 17.028 48.832C17.0255 48.8305 17.0181 48.8261 17.0156 48.8246C16.9999 48.8152 17.0189 48.8266 17.0032 48.8172C17.0012 48.8159 16.9991 48.8147 16.9971 48.8135C16.995 48.8122 16.993 48.811 16.9909 48.8098C16.9852 48.8064 16.9844 48.8059 16.9787 48.8025C16.9173 48.7656 16.9914 48.8101 16.9303 48.7734C16.9112 48.762 16.9018 48.7563 16.883 48.745C16.8799 48.7431 16.8744 48.7399 16.8713 48.738C16.8643 48.7338 16.8666 48.7352 16.8597 48.731C16.8304 48.7135 16.8658 48.7347 16.8366 48.7172C16.788 48.688 16.8395 48.7189 16.7912 48.6899C16.7777 48.6819 16.7822 48.6846 16.7688 48.6765C16.7481 48.6641 16.7674 48.6757 16.7468 48.6633C16.7378 48.6579 16.7119 48.6424 16.7033 48.6372C16.6023 48.5766 16.635 48.5962 16.5392 48.5388C16.4906 48.5096 16.2858 48.3867 16.258 48.37C16.2371 48.3575 16.217 48.3454 16.1974 48.3337C16.194 48.3317 16.1935 48.3314 16.1901 48.3293C16.1848 48.3261 16.1882 48.3282 16.1829 48.325C16.1791 48.3227 16.1796 48.323 16.1757 48.3207C16.1745 48.32 16.1734 48.3193 16.1722 48.3185C16.171 48.3178 16.1698 48.3171 16.1686 48.3164C16.1674 48.3157 16.1663 48.315 16.1651 48.3143C16.1639 48.3136 16.1627 48.3129 16.1616 48.3122C16.1555 48.3085 16.1607 48.3116 16.1546 48.308C16.149 48.3047 16.1463 48.303 16.1408 48.2997C16.1371 48.2975 16.1173 48.2856 16.1139 48.2836C16.107 48.2794 16.1078 48.2799 16.1009 48.2758C16.0998 48.2751 16.0987 48.2745 16.0977 48.2738C16.0966 48.2732 16.0955 48.2725 16.0944 48.2719C16.0934 48.2713 16.0923 48.2706 16.0912 48.27C16.0902 48.2693 16.0891 48.2687 16.0881 48.2681C16.0864 48.2671 16.0771 48.2615 16.0755 48.2605C16.0744 48.2599 16.0734 48.2593 16.0724 48.2587C16.0714 48.258 16.0703 48.2574 16.0693 48.2568C16.0683 48.2562 16.0672 48.2556 16.0662 48.255C16.0652 48.2544 16.0642 48.2537 16.0632 48.2531C16.0494 48.2449 16.0647 48.2541 16.0511 48.2459C16.0501 48.2453 16.0491 48.2447 16.0481 48.2441C16.0471 48.2435 16.0461 48.2429 16.0451 48.2423C16.0441 48.2417 16.0432 48.2411 16.0422 48.2405C16.0412 48.24 16.0402 48.2394 16.0392 48.2388C16.0132 48.2232 15.9741 48.1997 15.9533 48.1872C15.9379 48.178 15.9493 48.1848 15.9343 48.1758C15.9312 48.1739 15.9327 48.1749 15.9296 48.173C15.9289 48.1726 15.9281 48.1721 15.9274 48.1717C15.9266 48.1712 15.9258 48.1707 15.9251 48.1703C15.9243 48.1698 15.9236 48.1694 15.9228 48.1689C15.9221 48.1685 15.9214 48.1681 15.9206 48.1676C15.9199 48.1672 15.9191 48.1667 15.9184 48.1663C15.9177 48.1658 15.9169 48.1654 15.9162 48.1649C15.9045 48.1579 15.8934 48.1513 15.883 48.145C15.7969 48.0934 15.8545 48.1279 15.7892 48.0888C15.7635 48.0734 15.7863 48.087 15.7658 48.0747C15.7611 48.0719 15.7633 48.0732 15.7599 48.0712C15.7587 48.0704 15.7594 48.0709 15.7585 48.0703C15.7581 48.0701 15.7584 48.0703 15.7581 48.0701C15.758 48.0701 15.7581 48.0701 15.758 48.07C15.758 48.07 15.758 48.07 15.758 48.07C15.758 48.07 15.758 48.07 13.7 51.5ZM13.642 56.13C15.156 57.0383 17.0732 58.0089 19.3448 59.0415L22.6552 51.7585C20.5268 50.7911 18.9107 49.9617 17.758 49.27L13.642 56.13ZM19.3448 59.0415C21.7314 60.1263 24.3366 61.0871 27.1506 61.9313L29.4494 54.2687C26.9301 53.5129 24.6686 52.6737 22.6552 51.7585L19.3448 59.0415ZM27.1764 61.9389C30.2593 62.8413 33.3707 63.3 36.5 63.3V55.3C34.1627 55.3 31.8073 54.9587 29.4236 54.261L27.1764 61.9389ZM36.5 63.3C37.7134 63.3 38.8694 63.2257 39.9155 63.0355C40.9213 62.8526 42.084 62.5181 43.1188 61.8282L38.6812 55.1718C38.916 55.0153 38.9454 55.0807 38.4845 55.1645C38.064 55.241 37.4199 55.3 36.5 55.3V63.3ZM43.1768 61.7888C44.9604 60.554 46.2 58.6317 46.2 56.2H38.2C38.2 56.0197 38.2496 55.76 38.3928 55.5068C38.526 55.2711 38.6568 55.1879 38.6232 55.2112L43.1768 61.7888ZM46.2 56.2C46.2 54.7601 45.809 53.3389 44.9462 52.0839C44.107 50.8633 42.9692 50.0125 41.7889 49.4223L38.2111 56.5777C38.4975 56.7209 38.4597 56.7701 38.3538 56.6161C38.3015 56.5399 38.2567 56.4477 38.2284 56.3524C38.2151 56.3077 38.2077 56.2701 38.2038 56.2423C38.2 56.2147 38.2 56.1998 38.2 56.2H46.2ZM41.9154 49.4884C40.0851 48.4901 37.8359 47.6585 35.2706 46.9459L33.1294 54.6541C35.3641 55.2748 36.9816 55.9099 38.0846 56.5116L41.9154 49.4884ZM35.3993 46.984C33.0816 46.2556 30.4949 45.4265 27.6383 44.4965L25.1617 52.1035C28.0385 53.0401 30.6518 53.8777 33.0007 54.616L35.3993 46.984ZM27.6832 44.5114C23.7576 43.1818 20.6852 41.7446 18.38 40.2462L14.02 46.9538C17.0481 48.922 20.7757 50.6182 25.1168 52.0886L27.6832 44.5114ZM18.4379 40.2846C16.2159 38.7848 14.7445 37.1514 13.8375 35.433L6.76246 39.167C8.38882 42.2486 10.8507 44.8152 13.9621 46.9154L18.4379 40.2846ZM13.8583 35.4728C12.9455 33.6953 12.4 31.3868 12.4 28.4H4.4C4.4 32.3465 5.12115 35.9713 6.74173 39.1272L13.8583 35.4728ZM12.4 28.4C12.4 23.7678 13.4775 20.2146 15.3798 17.4897L8.82017 12.9103C5.78914 17.2521 4.4 22.4989 4.4 28.4H12.4ZM15.3798 17.4897C17.4253 14.5597 20.0878 12.3568 23.4415 10.8477L20.1585 3.55231C15.5122 5.64315 11.708 8.77361 8.82017 12.9103L15.3798 17.4897ZM23.4687 10.8353C26.9893 9.21928 30.784 8.4 34.9 8.4V0.399998C29.6827 0.399998 24.744 1.44738 20.1313 3.56468L23.4687 10.8353ZM34.9 8.4C38.0297 8.4 41.0105 8.79069 43.8543 9.5609L45.9457 1.83909C42.3895 0.875973 38.7037 0.399998 34.9 0.399998V8.4ZM43.9485 9.58519C47.0235 10.3382 49.8459 11.2715 52.4243 12.3766L55.5757 5.02342C52.5541 3.72846 49.3098 2.66175 45.8515 1.81481L43.9485 9.58519ZM52.4554 12.3898C55.2626 13.5649 57.6777 14.661 59.7112 15.6777L63.2889 8.52228C61.0556 7.40568 58.4707 6.23513 55.5446 5.01023L52.4554 12.3898ZM57.9537 10.2497L49.5537 26.3497L56.6463 30.0503L65.0463 13.9503L57.9537 10.2497ZM136.719 73.8L138.387 70.1647L136.719 73.8ZM126.719 66.1L123.558 68.5513L123.573 68.5712L123.589 68.591L126.719 66.1ZM121.119 54.9L117.268 55.983L117.27 55.9909L117.273 55.9989L121.119 54.9ZM119.319 5V0.999996H115.319V5H119.319ZM138.819 5H142.819V0.999996H138.819V5ZM139.519 48.2L143.426 47.3452L139.519 48.2ZM141.719 53.9L138.289 55.958V55.958L141.719 53.9ZM145.519 57.9L143.334 61.2504L143.417 61.3049L143.503 61.3551L145.519 57.9ZM157.219 57.9L159.234 61.3551L159.287 61.3243L159.339 61.292L157.219 57.9ZM161.019 53.9L157.554 51.9011L157.541 51.9233L157.529 51.9456L161.019 53.9ZM163.919 5V0.999996H159.919V5H163.919ZM183.419 5H187.419V0.999996H183.419V5ZM181.419 55.3L177.601 54.1069L177.592 54.1342L177.584 54.1616L181.419 55.3ZM175.619 66.5L172.514 63.9776L175.619 66.5ZM165.619 74L167.209 77.6702L167.223 77.664L167.238 77.6577L165.619 74ZM151.319 72.6C146.08 72.6 141.811 71.736 138.387 70.1647L135.05 77.4353C139.76 79.5973 145.225 80.6 151.319 80.6V72.6ZM138.387 70.1647C134.849 68.5404 132.03 66.3502 129.848 63.609L123.589 68.591C126.607 72.3832 130.455 75.3262 135.05 77.4353L138.387 70.1647ZM129.88 63.6487C127.676 60.8075 126.033 57.5389 124.965 53.8011L117.273 55.9989C118.605 60.6611 120.695 64.8591 123.558 68.5513L129.88 63.6487ZM124.969 53.817C123.874 49.921 123.319 45.8199 123.319 41.5H115.319C115.319 46.5134 115.964 51.3457 117.268 55.983L124.969 53.817ZM123.319 41.5V5H115.319V41.5H123.319ZM119.319 9H138.819V0.999996H119.319V9ZM134.819 5V41.5H142.819V5H134.819ZM134.819 41.5C134.819 44.1012 135.079 46.6222 135.611 49.0548L143.426 47.3452C143.025 45.5111 142.819 43.5654 142.819 41.5H134.819ZM135.611 49.0548C136.159 51.5606 137.04 53.8759 138.289 55.958L145.149 51.842C144.398 50.5907 143.812 49.106 143.426 47.3452L135.611 49.0548ZM138.289 55.958C139.581 58.1114 141.262 59.8992 143.334 61.2504L147.704 54.5496C146.709 53.9008 145.857 53.022 145.149 51.842L138.289 55.958ZM143.503 61.3551C145.838 62.7172 148.502 63.3 151.319 63.3V55.3C149.603 55.3 148.399 54.9495 147.534 54.4449L143.503 61.3551ZM151.319 63.3C154.179 63.3 156.883 62.7268 159.234 61.3551L155.203 54.4449C154.355 54.9399 153.125 55.3 151.319 55.3V63.3ZM159.339 61.292C161.516 59.931 163.251 58.1002 164.509 55.8544L157.529 51.9456C156.92 53.0331 156.121 53.869 155.099 54.508L159.339 61.292ZM164.483 55.8989C165.707 53.7783 166.58 51.4535 167.126 48.9548L159.311 47.2452C158.924 49.0132 158.331 50.5551 157.554 51.9011L164.483 55.8989ZM167.126 48.9548C167.657 46.5302 167.919 44.0432 167.919 41.5H159.919C159.919 43.4901 159.714 45.4031 159.311 47.2452L167.126 48.9548ZM167.919 41.5V5H159.919V41.5H167.919ZM163.919 9H183.419V0.999996H163.919V9ZM179.419 5V41.5H187.419V5H179.419ZM179.419 41.5C179.419 46.0703 178.802 50.2642 177.601 54.1069L185.237 56.4931C186.702 51.8025 187.419 46.7964 187.419 41.5H179.419ZM177.584 54.1616C176.455 57.9639 174.757 61.2179 172.514 63.9776L178.723 69.0224C181.681 65.3821 183.849 61.1695 185.253 56.4384L177.584 54.1616ZM172.514 63.9776C170.344 66.6492 167.535 68.7775 164 70.3423L167.238 77.6577C171.836 75.6225 175.694 72.7508 178.723 69.0224L172.514 63.9776ZM164.028 70.3298C160.646 71.7955 156.447 72.6 151.319 72.6V80.6C157.257 80.6 162.592 79.6712 167.209 77.6702L164.028 70.3298ZM243.135 76H239.135V80H243.135V76ZM243.135 5V0.999996H239.135V5H243.135ZM262.635 5H266.635V0.999996H262.635V5ZM262.635 76V80H266.635V76H262.635ZM247.135 76V5H239.135V76H247.135ZM243.135 9H262.635V0.999996H243.135V9ZM258.635 5V76H266.635V5H258.635ZM262.635 72H243.135V80H262.635V72ZM378.673 22V26H382.673V22H378.673ZM358.273 22V18H354.273V22H358.273ZM358.273 76V80H362.273V76H358.273ZM338.773 76H334.773V80H338.773V76ZM338.773 22H342.773V18H338.773V22ZM318.273 22H314.273V26H318.273V22ZM318.273 5V0.999996H314.273V5H318.273ZM378.673 5H382.673V0.999996H378.673V5ZM378.673 18H358.273V26H378.673V18ZM354.273 22V76H362.273V22H354.273ZM358.273 72H338.773V80H358.273V72ZM342.773 76V22H334.773V76H342.773ZM338.773 18H318.273V26H338.773V18ZM322.273 22V5H314.273V22H322.273ZM318.273 9H378.673V0.999996H318.273V9ZM374.673 5V22H382.673V5H374.673ZM477.276 28.2L475.248 31.6477L478.875 33.7816L480.822 30.0503L477.276 28.2ZM475.576 27.2L477.604 23.7523L477.604 23.7523L475.576 27.2ZM471.076 25L469.391 28.628L469.445 28.6531L469.5 28.6766L471.076 25ZM464.976 22.7L466.136 18.8719L466.136 18.8719L464.976 22.7ZM454.376 22.5L456.165 26.0777L454.376 22.5ZM454.376 28.1L456.642 24.8038V24.8038L454.376 28.1ZM458.876 30.1L457.69 33.9203L457.708 33.9259L457.726 33.9313L458.876 30.1ZM465.976 32.3L464.767 36.1129L464.791 36.1207L464.816 36.1281L465.976 32.3ZM477.376 36.9L479.281 33.3828L477.376 36.9ZM484.776 43.6L481.398 45.7422L481.41 45.7611L481.422 45.78L484.776 43.6ZM485.076 65.1L488.603 66.9866L488.612 66.9699L488.621 66.953L485.076 65.1ZM478.876 72L481.095 75.3282L478.876 72ZM470.176 75.8L471.069 79.6989L471.108 79.6901L471.146 79.6806L470.176 75.8ZM449.676 75.9L448.891 79.8223L448.932 79.8304L448.973 79.8377L449.676 75.9ZM438.976 73L437.603 76.7571L437.635 76.7688L437.667 76.7799L438.976 73ZM429.476 68.6L425.886 66.8364L424.241 70.1836L427.465 72.058L429.476 68.6ZM437.876 51.5L439.934 48.07L436.204 45.8319L434.286 49.7364L437.876 51.5ZM445.176 55.4L443.521 59.0415L445.176 55.4ZM452.476 58.1L451.326 61.9313L451.339 61.9352L451.352 61.9389L452.476 58.1ZM465.076 58.5L467.295 61.8282L467.324 61.8087L467.353 61.7888L465.076 58.5ZM464.176 53L462.26 56.5116L462.323 56.5458L462.387 56.5777L464.176 53ZM458.376 50.8L457.176 54.616L457.241 54.6361L457.305 54.6541L458.376 50.8ZM450.576 48.3L449.293 52.0886L449.315 52.0962L449.337 52.1035L450.576 48.3ZM440.376 43.6L438.138 46.9154L438.167 46.9348L438.196 46.9538L440.376 43.6ZM434.476 37.3L430.918 39.1272L430.928 39.1472L430.938 39.167L434.476 37.3ZM436.276 15.2L432.996 12.9103V12.9103L436.276 15.2ZM445.976 7.2L447.617 10.8477L447.631 10.8416L447.644 10.8353L445.976 7.2ZM469.076 5.7L468.03 9.5609L468.077 9.57362L468.124 9.58519L469.076 5.7ZM478.176 8.7L476.6 12.3766L476.616 12.3832L476.631 12.3898L478.176 8.7ZM485.676 12.1L489.222 13.9503L491.105 10.3422L487.465 8.52228L485.676 12.1ZM477.276 28.2C479.304 24.7523 479.304 24.7523 479.304 24.7523C479.304 24.7523 479.304 24.7523 479.304 24.7522C479.304 24.7522 479.304 24.7522 479.304 24.7522C479.304 24.7522 479.304 24.7522 479.304 24.7522C479.304 24.7522 479.304 24.7522 479.304 24.7522C479.304 24.7522 479.304 24.7521 479.304 24.7521C479.304 24.7521 479.304 24.7521 479.303 24.752C479.303 24.7519 479.303 24.7516 479.302 24.7513C479.301 24.7508 479.301 24.7507 479.3 24.7501C479.3 24.75 479.298 24.7486 479.297 24.7484C479.297 24.7481 479.291 24.7444 479.289 24.7435C479.288 24.7432 479.287 24.7423 479.286 24.7419C479.286 24.7418 479.286 24.7417 479.286 24.7415C479.285 24.7414 479.285 24.7413 479.285 24.7411C479.285 24.741 479.284 24.7409 479.284 24.7407C479.284 24.7406 479.284 24.7404 479.284 24.7403C479.283 24.7398 479.281 24.739 479.281 24.7385C479.28 24.7383 479.278 24.7369 479.277 24.7366C479.275 24.7351 479.251 24.7213 479.244 24.7171C479.241 24.7151 479.227 24.7071 479.223 24.7044C479.222 24.7044 479.199 24.6905 479.198 24.6898C479.169 24.6728 479.111 24.639 479.065 24.6116C479.056 24.6066 478.905 24.5177 478.879 24.5023C478.861 24.492 477.905 23.9292 477.604 23.7523L473.548 30.6477C473.655 30.7109 473.856 30.8294 473.946 30.8821C473.96 30.8902 474.025 30.9284 474.037 30.9358C474.039 30.9369 474.041 30.938 474.043 30.9391C474.045 30.9402 474.047 30.9413 474.049 30.9424C474.051 30.944 474.057 30.9473 474.06 30.9489C474.061 30.9499 474.08 30.961 474.082 30.9619C474.091 30.967 474.095 30.9698 474.104 30.9748C474.107 30.9767 474.122 30.9857 474.125 30.9876C474.142 30.9976 474.279 31.0778 474.291 31.0852C474.52 31.2196 474.665 31.3051 474.823 31.3977C474.905 31.4461 475.13 31.5786 475.141 31.5852C475.164 31.5984 475.217 31.6294 475.221 31.6321C475.224 31.6338 475.231 31.6379 475.233 31.6389C475.234 31.6398 475.236 31.641 475.237 31.6416C475.238 31.6418 475.241 31.6438 475.241 31.6438C475.241 31.644 475.242 31.6441 475.242 31.6443C475.242 31.6444 475.242 31.6445 475.242 31.6445C475.242 31.6446 475.242 31.6447 475.243 31.6447C475.243 31.6448 475.244 31.6455 475.244 31.6455C475.244 31.6456 475.244 31.6457 475.244 31.6457C475.244 31.6458 475.244 31.6458 475.245 31.6459C475.245 31.6459 475.245 31.646 475.245 31.646C475.245 31.6461 475.245 31.6462 475.245 31.6462C475.245 31.6463 475.246 31.6465 475.246 31.6465C475.246 31.6467 475.246 31.6466 475.246 31.6468C475.246 31.6468 475.246 31.6469 475.246 31.647C475.246 31.647 475.247 31.6471 475.247 31.6471C475.247 31.6471 475.247 31.6472 475.247 31.6472C475.247 31.6474 475.247 31.6473 475.247 31.6475C475.247 31.6476 475.248 31.6476 475.248 31.6477C475.248 31.6477 475.248 31.6477 475.248 31.6477C475.248 31.6477 475.248 31.6477 475.248 31.6477C475.248 31.6477 475.248 31.6477 475.248 31.6477C475.248 31.6477 475.248 31.6477 477.276 28.2ZM477.604 23.7523C476.269 22.9669 474.6 22.1584 472.651 21.3234L469.5 28.6766C471.285 29.4416 472.616 30.0997 473.548 30.6477L477.604 23.7523ZM472.76 21.372C470.705 20.4179 468.495 19.5867 466.136 18.8719L463.816 26.5281C465.857 27.1466 467.713 27.8488 469.391 28.628L472.76 21.372ZM466.136 18.8719C463.589 18.1001 461.031 17.7 458.476 17.7V25.7C460.187 25.7 461.963 25.9666 463.816 26.5281L466.136 18.8719ZM458.476 17.7C456.42 17.7 454.385 18.0233 452.587 18.9223L456.165 26.0777C456.5 25.91 457.198 25.7 458.476 25.7V17.7ZM452.587 18.9223C451.465 19.4831 450.446 20.336 449.735 21.5358C449.032 22.7214 448.776 24.0004 448.776 25.2H456.776C456.776 25.1329 456.786 25.3286 456.617 25.6142C456.439 25.914 456.22 26.0502 456.165 26.0777L452.587 18.9223ZM448.776 25.2C448.776 27.8349 450.058 29.9859 452.11 31.3962L456.642 24.8038C456.533 24.7289 456.597 24.745 456.678 24.8927C456.716 24.9615 456.744 25.0339 456.76 25.1002C456.776 25.1648 456.776 25.202 456.776 25.2H448.776ZM452.11 31.3962C453.64 32.4484 455.563 33.2602 457.69 33.9203L460.061 26.2797C458.322 25.7398 457.245 25.2183 456.642 24.8038L452.11 31.3962ZM457.726 33.9313C459.701 34.5236 462.047 35.2504 464.767 36.1129L467.185 28.4871C464.438 27.6163 462.051 26.8764 460.025 26.2687L457.726 33.9313ZM464.816 36.1281C469.022 37.4026 472.56 38.8407 475.471 40.4172L479.281 33.3828C475.791 31.4926 471.73 29.8641 467.136 28.4719L464.816 36.1281ZM475.471 40.4172C478.146 41.8665 480.074 43.6542 481.398 45.7422L488.154 41.4578C486.011 38.0791 483.005 35.4001 479.281 33.3828L475.471 40.4172ZM481.422 45.78C482.595 47.585 483.376 50.3069 483.376 54.3H491.376C491.376 49.3598 490.423 44.9483 488.13 41.42L481.422 45.78ZM483.376 54.3C483.376 58.1023 482.691 61.0269 481.531 63.247L488.621 66.953C490.527 63.3064 491.376 59.031 491.376 54.3H483.376ZM481.549 63.2134C480.313 65.5234 478.686 67.3189 476.657 68.6718L481.095 75.3282C484.265 73.2144 486.772 70.4099 488.603 66.9866L481.549 63.2134ZM476.657 68.6718C474.459 70.1369 471.986 71.2244 469.206 71.9194L471.146 79.6806C474.766 78.7756 478.092 77.3297 481.095 75.3282L476.657 68.6718ZM469.282 71.9011C466.38 72.5662 463.413 72.9 460.376 72.9V80.9C464.005 80.9 467.572 80.5005 471.069 79.6989L469.282 71.9011ZM460.376 72.9C457.237 72.9 453.906 72.5922 450.379 71.9623L448.973 79.8377C452.912 80.5412 456.715 80.9 460.376 80.9V72.9ZM450.46 71.9777C446.968 71.2792 443.576 70.3596 440.284 69.2201L437.667 76.7799C441.309 78.0404 445.05 79.0541 448.891 79.8223L450.46 71.9777ZM440.349 69.2429C437.078 68.0481 434.128 66.678 431.486 65.142L427.465 72.058C430.557 73.8553 433.94 75.4186 437.603 76.7571L440.349 69.2429ZM433.066 70.3636L441.466 53.2636L434.286 49.7364L425.886 66.8364L433.066 70.3636ZM437.876 51.5C435.818 54.93 435.818 54.93 435.818 54.93C435.818 54.93 435.818 54.93 435.818 54.93C435.818 54.93 435.818 54.93 435.818 54.93C435.818 54.93 435.818 54.93 435.818 54.93C435.818 54.9301 435.818 54.9301 435.818 54.9301C435.818 54.9302 435.818 54.9301 435.818 54.9303C435.818 54.9304 435.819 54.9305 435.819 54.9306C435.819 54.9307 435.82 54.9311 435.82 54.9311C435.82 54.9315 435.82 54.9314 435.821 54.9318C435.822 54.9322 435.821 54.9321 435.822 54.9326C435.823 54.933 435.825 54.934 435.826 54.9347C435.829 54.9365 435.831 54.9379 435.835 54.9405C435.839 54.9429 435.844 54.9456 435.849 54.9487C435.864 54.9575 435.868 54.9603 435.888 54.9722C435.933 54.999 435.893 54.975 435.943 55.005C436.118 55.11 435.903 54.9812 436.099 55.0987C436.112 55.1062 436.284 55.21 436.318 55.23C436.518 55.3499 436.66 55.4351 436.943 55.605C437.392 55.8748 437.285 55.8102 437.818 56.13L441.934 49.27C441.7 49.13 441.92 49.2616 441.692 49.1247C441.628 49.0866 441.523 49.0238 441.465 48.9888C441.448 48.9784 441.469 48.991 441.451 48.9806C441.45 48.98 441.439 48.973 441.438 48.9724C441.409 48.9552 441.439 48.9734 441.411 48.9563C441.382 48.9391 441.413 48.9573 441.384 48.9402C441.382 48.9389 441.38 48.9376 441.377 48.9362C441.375 48.9349 441.373 48.9336 441.371 48.9323C441.37 48.9317 441.358 48.9248 441.358 48.9243C441.351 48.9201 441.338 48.9128 441.331 48.9086C441.329 48.9073 441.327 48.906 441.325 48.9047C441.323 48.9034 441.32 48.9021 441.318 48.9008C441.316 48.8995 441.314 48.8982 441.312 48.8969C441.31 48.8956 441.307 48.8943 441.305 48.893C441.302 48.8909 441.283 48.8795 441.28 48.8775C441.277 48.8762 441.275 48.875 441.273 48.8737C441.271 48.8724 441.269 48.8711 441.267 48.8699C441.259 48.8653 441.262 48.8668 441.254 48.8622C441.252 48.8609 441.25 48.8597 441.248 48.8584C441.246 48.8571 441.244 48.8559 441.241 48.8546C441.236 48.8516 441.234 48.8501 441.229 48.8471C441.227 48.846 441.205 48.833 441.204 48.832C441.201 48.8305 441.194 48.8261 441.191 48.8246C441.176 48.8152 441.195 48.8266 441.179 48.8172C441.177 48.8159 441.175 48.8147 441.173 48.8135C441.171 48.8122 441.169 48.811 441.167 48.8098C441.161 48.8064 441.16 48.8059 441.154 48.8025C441.093 48.7656 441.167 48.8101 441.106 48.7734C441.087 48.762 441.078 48.7563 441.059 48.745C441.056 48.7431 441.05 48.7399 441.047 48.738C441.04 48.7338 441.042 48.7352 441.035 48.731C441.006 48.7135 441.042 48.7347 441.012 48.7172C440.964 48.688 441.015 48.7189 440.967 48.6899C440.954 48.6819 440.958 48.6846 440.945 48.6765C440.924 48.6641 440.943 48.6757 440.923 48.6633C440.914 48.6579 440.888 48.6424 440.879 48.6372C440.778 48.5766 440.811 48.5962 440.715 48.5388C440.666 48.5096 440.462 48.3867 440.434 48.37C440.413 48.3575 440.393 48.3454 440.373 48.3337C440.37 48.3317 440.369 48.3314 440.366 48.3293C440.361 48.3261 440.364 48.3282 440.359 48.325C440.355 48.3227 440.355 48.323 440.352 48.3207C440.35 48.32 440.349 48.3193 440.348 48.3185C440.347 48.3178 440.346 48.3171 440.344 48.3164C440.343 48.3157 440.342 48.315 440.341 48.3143C440.34 48.3136 440.339 48.3129 440.337 48.3122C440.331 48.3085 440.336 48.3116 440.33 48.308C440.325 48.3047 440.322 48.303 440.317 48.2997C440.313 48.2975 440.293 48.2856 440.29 48.2836C440.283 48.2794 440.284 48.2799 440.277 48.2758C440.276 48.2751 440.275 48.2745 440.273 48.2738C440.272 48.2732 440.271 48.2725 440.27 48.2719C440.269 48.2713 440.268 48.2706 440.267 48.27C440.266 48.2693 440.265 48.2687 440.264 48.2681C440.262 48.2671 440.253 48.2615 440.251 48.2605C440.25 48.2599 440.249 48.2593 440.248 48.2587C440.247 48.258 440.246 48.2574 440.245 48.2568C440.244 48.2562 440.243 48.2556 440.242 48.255C440.241 48.2544 440.24 48.2537 440.239 48.2531C440.225 48.2449 440.241 48.2541 440.227 48.2459C440.226 48.2453 440.225 48.2447 440.224 48.2441C440.223 48.2435 440.222 48.2429 440.221 48.2423C440.22 48.2417 440.219 48.2411 440.218 48.2405C440.217 48.24 440.216 48.2394 440.215 48.2388C440.189 48.2232 440.15 48.1997 440.129 48.1872C440.114 48.178 440.125 48.1848 440.11 48.1758C440.107 48.1739 440.108 48.1749 440.105 48.173C440.105 48.1726 440.104 48.1721 440.103 48.1717C440.102 48.1712 440.102 48.1707 440.101 48.1703C440.1 48.1698 440.099 48.1694 440.099 48.1689C440.098 48.1685 440.097 48.1681 440.096 48.1676C440.096 48.1672 440.095 48.1667 440.094 48.1663C440.093 48.1658 440.093 48.1654 440.092 48.1649C440.08 48.1579 440.069 48.1513 440.059 48.145C439.973 48.0934 440.03 48.1279 439.965 48.0888C439.939 48.0734 439.962 48.087 439.942 48.0747C439.937 48.0719 439.939 48.0732 439.936 48.0712C439.934 48.0704 439.935 48.0709 439.934 48.0703C439.934 48.0701 439.934 48.0703 439.934 48.0701C439.934 48.0701 439.934 48.0701 439.934 48.07C439.934 48.07 439.934 48.07 439.934 48.07C439.934 48.07 439.934 48.07 437.876 51.5ZM437.818 56.13C439.332 57.0383 441.249 58.0089 443.521 59.0415L446.831 51.7585C444.703 50.7911 443.086 49.9617 441.934 49.27L437.818 56.13ZM443.521 59.0415C445.907 60.1263 448.512 61.0871 451.326 61.9313L453.625 54.2687C451.106 53.5129 448.844 52.6737 446.831 51.7585L443.521 59.0415ZM451.352 61.9389C454.435 62.8413 457.546 63.3 460.676 63.3V55.3C458.338 55.3 455.983 54.9587 453.599 54.261L451.352 61.9389ZM460.676 63.3C461.889 63.3 463.045 63.2257 464.091 63.0355C465.097 62.8526 466.26 62.5181 467.295 61.8282L462.857 55.1718C463.092 55.0153 463.121 55.0807 462.66 55.1645C462.24 55.241 461.596 55.3 460.676 55.3V63.3ZM467.353 61.7888C469.136 60.554 470.376 58.6317 470.376 56.2H462.376C462.376 56.0197 462.425 55.76 462.569 55.5068C462.702 55.2711 462.833 55.1879 462.799 55.2112L467.353 61.7888ZM470.376 56.2C470.376 54.7601 469.985 53.3389 469.122 52.0839C468.283 50.8633 467.145 50.0125 465.965 49.4223L462.387 56.5777C462.673 56.7209 462.635 56.7701 462.53 56.6161C462.477 56.5399 462.432 56.4477 462.404 56.3524C462.391 56.3077 462.384 56.2701 462.38 56.2423C462.376 56.2147 462.376 56.1998 462.376 56.2H470.376ZM466.091 49.4884C464.261 48.4901 462.012 47.6585 459.446 46.9459L457.305 54.6541C459.54 55.2748 461.157 55.9099 462.26 56.5116L466.091 49.4884ZM459.575 46.984C457.257 46.2556 454.671 45.4265 451.814 44.4965L449.337 52.1035C452.214 53.0401 454.828 53.8777 457.176 54.616L459.575 46.984ZM451.859 44.5114C447.933 43.1818 444.861 41.7446 442.556 40.2462L438.196 46.9538C441.224 48.922 444.951 50.6182 449.293 52.0886L451.859 44.5114ZM442.614 40.2846C440.392 38.7848 438.92 37.1514 438.013 35.433L430.938 39.167C432.565 42.2486 435.027 44.8152 438.138 46.9154L442.614 40.2846ZM438.034 35.4728C437.121 33.6953 436.576 31.3868 436.576 28.4H428.576C428.576 32.3465 429.297 35.9713 430.918 39.1272L438.034 35.4728ZM436.576 28.4C436.576 23.7678 437.653 20.2146 439.556 17.4897L432.996 12.9103C429.965 17.2521 428.576 22.4989 428.576 28.4H436.576ZM439.556 17.4897C441.601 14.5597 444.264 12.3568 447.617 10.8477L444.334 3.55231C439.688 5.64315 435.884 8.77361 432.996 12.9103L439.556 17.4897ZM447.644 10.8353C451.165 9.21928 454.96 8.4 459.076 8.4V0.399998C453.858 0.399998 448.92 1.44738 444.307 3.56468L447.644 10.8353ZM459.076 8.4C462.205 8.4 465.186 8.79069 468.03 9.5609L470.121 1.83909C466.565 0.875973 462.879 0.399998 459.076 0.399998V8.4ZM468.124 9.58519C471.199 10.3382 474.022 11.2715 476.6 12.3766L479.751 5.02342C476.73 3.72846 473.486 2.66175 470.027 1.81481L468.124 9.58519ZM476.631 12.3898C479.438 13.5649 481.853 14.661 483.887 15.6777L487.465 8.52228C485.231 7.40568 482.646 6.23513 479.72 5.01023L476.631 12.3898ZM482.129 10.2497L473.729 26.3497L480.822 30.0503L489.222 13.9503L482.129 10.2497Z" fill="#335266"/>
</svg>
